HIERARCHY
ROOT Hips
{
	OFFSET 0.000000 0.000000 0.000000
	CHANNELS 6 Xposition Yposition Zposition Zrotation Yrotation Xrotation 
	JOINT LHipJoint
	{
		OFFSET 0.000000 0.000000 0.000000
		CHANNELS 3 Zrotation Yrotation Xrotation
		JOINT LeftUpLeg
		{
			OFFSET 1.363060 -1.794630 0.839290
			CHANNELS 3 Zrotation Yrotation Xrotation
			JOINT LeftLeg
			{
				OFFSET 2.448110 -6.726130 0.000000
				CHANNELS 3 Zrotation Yrotation Xrotation
				JOINT LeftFoot
				{
					OFFSET 2.562200 -7.039590 0.000000
					CHANNELS 3 Zrotation Yrotation Xrotation
					JOINT LeftToeBase
					{
						OFFSET 0.157640 -0.433110 2.322550
						CHANNELS 3 Zrotation Yrotation Xrotation
						End Site
						{
							OFFSET 0.000000 0.000000 0.000000
						}
					}
				}
			}
		}
	}
	JOINT RHipJoint
	{
		OFFSET 0.000000 0.000000 0.000000
		CHANNELS 3 Zrotation Yrotation Xrotation
		JOINT RightUpLeg
		{
			OFFSET -1.305520 -1.794630 0.839290
			CHANNELS 3 Zrotation Yrotation Xrotation
			JOINT RightLeg
			{
				OFFSET -2.542530 -6.985550 0.000000
				CHANNELS 3 Zrotation Yrotation Xrotation
				JOINT RightFoot
				{
					OFFSET -2.568260 -7.056230 0.000000
					CHANNELS 3 Zrotation Yrotation Xrotation
					JOINT RightToeBase
					{
						OFFSET -0.164730 -0.452590 2.363150
						CHANNELS 3 Zrotation Yrotation Xrotation
						End Site
						{
							OFFSET 0.000000 0.000000 0.000000
						}
					}
				}
			}
		}
	}
	JOINT LowerBack
	{
		OFFSET 0.000000 0.000000 0.000000
		CHANNELS 3 Zrotation Yrotation Xrotation
		JOINT Spine
		{
			OFFSET 0.028270 2.035590 -0.193380
			CHANNELS 3 Zrotation Yrotation Xrotation
			JOINT Spine1
			{
				OFFSET 0.056720 2.048850 -0.042750
				CHANNELS 3 Zrotation Yrotation Xrotation
				JOINT Neck
				{
					OFFSET 0.000000 0.000000 0.000000
					CHANNELS 3 Zrotation Yrotation Xrotation
					JOINT Neck1
					{
						OFFSET -0.054170 1.746240 0.172020
						CHANNELS 3 Zrotation Yrotation Xrotation
						JOINT Head
						{
							OFFSET 0.104070 1.761360 -0.123970
							CHANNELS 3 Zrotation Yrotation Xrotation
							End Site
							{
								OFFSET 0.000000 0.000000 0.000000
							}
						}
					}
				}
				JOINT LeftShoulder
				{
					OFFSET 0.000000 0.000000 0.000000
					CHANNELS 3 Zrotation Yrotation Xrotation
					JOINT LeftArm
					{
						OFFSET 3.362410 1.200890 -0.311210
						CHANNELS 3 Zrotation Yrotation Xrotation
						JOINT LeftForeArm
						{
							OFFSET 4.983000 -0.000000 -0.000000
							CHANNELS 3 Zrotation Yrotation Xrotation
							JOINT LeftHand
							{
								OFFSET 3.483560 -0.000000 -0.000000
								CHANNELS 3 Zrotation Yrotation Xrotation
								JOINT LeftFingerBase
								{
									OFFSET 0.000000 0.000000 0.000000
									CHANNELS 3 Zrotation Yrotation Xrotation
									JOINT LeftHandIndex1
									{
										OFFSET 0.715260 -0.000000 -0.000000
										CHANNELS 3 Zrotation Yrotation Xrotation
										End Site
										{
											OFFSET 0.000000 0.000000 0.000000
										}
									}
								}
								JOINT LThumb
								{
									OFFSET 0.000000 0.000000 0.000000
									CHANNELS 3 Zrotation Yrotation Xrotation
									End Site
									{
										OFFSET 0.000000 0.000000 0.000000
									}
								}
							}
						}
					}
				}
				JOINT RightShoulder
				{
					OFFSET 0.000000 0.000000 0.000000
					CHANNELS 3 Zrotation Yrotation Xrotation
					JOINT RightArm
					{
						OFFSET -3.136600 1.374050 -0.404650
						CHANNELS 3 Zrotation Yrotation Xrotation
						JOINT RightForeArm
						{
							OFFSET -5.241900 -0.000000 -0.000000
							CHANNELS 3 Zrotation Yrotation Xrotation
							JOINT RightHand
							{
								OFFSET -3.444170 -0.000000 -0.000000
								CHANNELS 3 Zrotation Yrotation Xrotation
								JOINT RightFingerBase
								{
									OFFSET 0.000000 0.000000 0.000000
									CHANNELS 3 Zrotation Yrotation Xrotation
									JOINT RightHandIndex1
									{
										OFFSET -0.622530 -0.000000 -0.000000
										CHANNELS 3 Zrotation Yrotation Xrotation
										End Site
										{
											OFFSET 0.000000 0.000000 0.000000
										}
									}
								}
								JOINT RThumb
								{
									OFFSET 0.000000 0.000000 0.000000
									CHANNELS 3 Zrotation Yrotation Xrotation
									End Site
									{
										OFFSET 0.000000 0.000000 0.000000
									}
								}
							}
						}
					}
				}
			}
		}
	}
}
MOTION
Frames: 5
Frame Time: 0.008333
-3.366477 15.588831 -0.609539 -157.536065 87.198108 -127.123955 -12.363079 -0.517163 -4.342651 -3.561333 4.380913 -30.438400 -1.064884 3.413376 56.304372 2.330174 12.008461 -20.985714 -2.910700 -0.000000 -61.995401 7.225779 2.183176 -0.277205 7.057782 2.076827 -71.820296 2.034589 -4.408853 44.019269 0.678602 4.731196 1.238378 0.533700 -0.000000 -61.032100 7.163474 -1.990835 8.338569 0.607334 -2.126258 -1.430742 -6.311951 -2.065284 -1.299946 6.881114 -8.896958 -7.286142 -3.148089 -0.209696 -0.365131 0.000000 0.000000 0.000000 4.690173 5.226395 2.121172 -59.373508 -15.035433 13.051992 -179.159524 -83.212441 -179.978482 -3.683201 5.154522 -0.152444 -0.029271 0.344505 -0.000000 0.000000 0.000000 0.000000 0.000000 0.000000 0.000000 8.296483 -4.158592 1.633915 72.609647 -10.559601 -0.674637 0.134869 83.473934 -0.040761 -8.136829 2.043110 -0.169372 0.091431 -0.322864 -0.000000 0.000000 0.000000 0.000000 0.000000 0.000000 0.000000 
-3.231702 15.560299 -0.581694 -156.737452 87.081580 -126.422231 -12.489867 -0.483043 -4.337828 -3.137781 4.571585 -30.157961 -0.992707 3.479143 56.751900 2.277761 11.950942 -20.313325 -2.740900 -0.000001 -62.762300 7.184092 2.180270 -0.520827 7.651953 1.765289 -72.000234 1.952152 -4.591323 45.810455 0.695112 4.963720 0.635288 0.551200 0.000000 -58.770700 7.457880 -1.982828 8.544351 0.680761 -2.114709 -1.419189 -6.247128 -2.060332 -1.406778 6.904609 -8.690938 -7.295138 -3.170991 -0.210887 -0.373440 0.000000 0.000000 0.000000 4.705120 5.152666 2.140362 -60.352400 -13.755604 13.266755 -179.217887 -83.676893 -179.979556 -3.582279 5.338200 -0.154261 -0.027659 0.336678 -0.000000 0.000000 0.000000 0.000000 0.000000 0.000000 0.000000 8.406408 -3.909423 1.649770 72.284486 -10.253203 -0.797760 0.138440 83.428101 -0.040869 -8.132295 2.039564 -0.169179 0.092764 -0.324013 -0.000000 0.000000 0.000000 0.000000 0.000000 0.000000 0.000000 
-3.097741 15.534024 -0.554804 -155.695037 86.966404 -125.460220 -12.620784 -0.458210 -4.334557 -2.703048 4.792276 -29.913006 -0.918837 3.542966 57.187721 2.226188 11.888783 -19.600754 -2.563900 -0.000000 -63.360200 7.130323 2.155299 -0.744193 8.268895 1.496016 -72.130815 1.890268 -4.750887 47.469966 0.691877 5.106118 -0.235277 0.528600 -0.000000 -56.247500 7.736575 -1.967922 8.731470 0.751622 -2.095860 -1.409975 -6.178848 -2.048040 -1.506210 6.943677 -8.477950 -7.294664 -3.189253 -0.211882 -0.378379 0.000000 0.000000 0.000000 4.739785 5.088974 2.150571 -61.398205 -12.473965 13.454268 -179.287435 -84.255378 -179.980828 -3.443963 5.533379 -0.154381 -0.025963 0.328552 -0.000000 0.000000 0.000000 0.000000 0.000000 0.000000 0.000000 8.521086 -3.657759 1.660688 71.959656 -9.910934 -0.917106 0.143319 83.323259 -0.041039 -8.146473 2.021905 -0.168286 0.094488 -0.324777 -0.000000 0.000000 0.000000 0.000000 0.000000 0.000000 0.000000 
-2.964533 15.509830 -0.528260 -154.603308 86.852700 -124.431512 -12.748414 -0.439372 -4.332143 -2.271999 5.030377 -29.698405 -0.844142 3.603161 57.605340 2.177748 11.831636 -18.857386 -2.384200 -0.000000 -63.831600 7.072639 2.114673 -0.942703 8.873579 1.276245 -72.210798 1.844506 -4.888503 48.991636 0.673598 5.183462 -1.302040 0.478301 -0.000000 -53.574200 7.990710 -1.947563 8.894432 0.817757 -2.071208 -1.403058 -6.109203 -2.029676 -1.594274 6.999816 -8.268165 -7.287867 -3.201809 -0.212584 -0.380597 0.000000 0.000000 0.000000 4.793230 5.039003 2.152707 -62.487172 -11.199573 13.611537 -179.365779 -84.940796 -179.982199 -3.277542 5.729005 -0.152704 -0.024073 0.320271 -0.000000 0.000000 0.000000 0.000000 0.000000 0.000000 0.000000 8.638869 -3.414631 1.665176 71.648241 -9.532853 -1.027050 0.149381 83.163897 -0.041266 -8.177910 1.989333 -0.166594 0.096558 -0.325151 -0.000000 0.000000 0.000000 0.000000 0.000000 0.000000 0.000000 
-2.831969 15.487488 -0.501738 -153.587644 86.735056 -123.462544 -12.868824 -0.424371 -4.328659 -1.849623 5.272513 -29.509653 -0.768585 3.659044 58.002497 2.133762 11.786433 -18.085479 -2.203700 0.000000 -64.248900 7.016323 2.063830 -1.115046 9.443966 1.109169 -72.239859 1.809653 -5.005754 50.381284 0.643572 5.213676 -2.488109 0.412300 -0.000000 -50.864499 8.220100 -1.920816 9.029544 0.878332 -2.040177 -1.397958 -6.041615 -2.004445 -1.666736 7.074831 -8.070630 -7.278785 -3.209017 -0.212982 -0.381116 0.000000 0.000000 0.000000 4.863182 5.013580 2.148657 -63.598931 -9.960255 13.752177 -179.450923 -85.736768 -179.983581 -3.095530 5.917640 -0.149529 -0.021997 0.311901 -0.000000 0.000000 0.000000 0.000000 0.000000 0.000000 0.000000 8.764346 -3.188351 1.661477 71.354863 -9.129167 -1.130225 0.156221 82.970734 -0.041541 -8.223371 1.940234 -0.164001 0.098909 -0.325153 -0.000000 0.000000 0.000000 0.000000 0.000000 0.000000 0.000000 
